PathFileType	4	(X/Y/Z)	C:/Users/opensim2020/Desktop/walking_exp_matlab/subject06_walking13_straight_03.trc																																																																																																																																																				
DataRate	CameraRate	NumFrames	NumMarkers	Units	OrigDataRate	OrigDataStartFrame	OrigNumFrames																																																																																																																																																
100	100	7	50	mm	100	2315	172																																																																																																																																																
Frame#	Time	LFHD			RFHD			LBHD			RBHD			C7			T10			CLAV			STRN			RBAK			LSHO			LUPA			LELB			LFRM			LWRA			LWRB			LFIN			RSHO			RUPA			RELB			RFRM			RWRA			RWRB			RFIN			LASI			RASI			LPSI			RPSI			LTHI			LKNE			LTIB			LANK			LHEE			LTOE			RTHI			RKNE			RTIB			RANK			RHEE			RTOE			*39			*40			*41			*42			*43			*44			*45			*46			*47			*48			*49		
		X1	Y1	Z1	X2	Y2	Z2	X3	Y3	Z3	X4	Y4	Z4	X5	Y5	Z5	X6	Y6	Z6	X7	Y7	Z7	X8	Y8	Z8	X9	Y9	Z9	X10	Y10	Z10	X11	Y11	Z11	X12	Y12	Z12	X13	Y13	Z13	X14	Y14	Z14	X15	Y15	Z15	X16	Y16	Z16	X17	Y17	Z17	X18	Y18	Z18	X19	Y19	Z19	X20	Y20	Z20	X21	Y21	Z21	X22	Y22	Z22	X23	Y23	Z23	X24	Y24	Z24	X25	Y25	Z25	X26	Y26	Z26	X27	Y27	Z27	X28	Y28	Z28	X29	Y29	Z29	X30	Y30	Z30	X31	Y31	Z31	X32	Y32	Z32	X33	Y33	Z33	X34	Y34	Z34	X35	Y35	Z35	X36	Y36	Z36	X37	Y37	Z37	X38	Y38	Z38	X39	Y39	Z39	X40	Y40	Z40	X41	Y41	Z41	X42	Y42	Z42	X43	Y43	Z43	X44	Y44	Z44	X45	Y45	Z45	X46	Y46	Z46	X47	Y47	Z47	X48	Y48	Z48	X49	Y49	Z49	X50	Y50	Z50
																																																																																																																																																							
130	1.29	643.07465	1643.10083	-1043.05029	622.46613	1626.31323	-913.89832	510.54288	1593.63306	-1067.18445	491.4902	1581.96594	-939.69354	497.88864	1431.96948	-1017.8927	459.56595	1102.81445	-1018.08887	607.35895	1351.99146	-1005.15027	645.10321	1176.72681	-1017.22968	413.86304	1258.69373	-957.1438	570.28418	1390.0177	-1171.49048	601.87152	1192.44226	-1247.88184	627.13812	1083.44495	-1264.4104	739.6543	987.86273	-1282.16406	861.97546	960.19177	-1235.44397	827.42584	907.86267	-1267.98584	915.36359	891.23486	-1270.46265	540.63806	1376.71387	-849.36938	462.0972	1183.88428	-779.05237	450.00833	1062.64661	-768.05798	430.27307	944.15979	-749.14282	451.30914	791.14215	-768.66779	394.12762	810.80157	-738.86261	404.42624	727.22296	-730.58759	636.86249	938.54846	-1124.97839	645.66022	955.80817	-903.52258	478.71933	966.09875	-1092.60938	490.216	974.69751	-923.99603	534.10852	624.44226	-1172.36926	508.12283	461.37241	-1151.19507	330.93542	272.23639	-1147.2926	225.29103	133.76913	-1109.16064	182.41481	144.62123	-1065.62512	328.72595	33.53325	-1097.84692	670.97906	635.00305	-846.63763	712.99548	519.21466	-879.48505	721.63544	251.25266	-878.63721	733.51361	67.2285	-927.27173	696.02539	43.60927	-972.44232	886.88483	36.88407	-928.05237	536.17419	1682.38074	-998.40125	NaN	NaN	NaN	NaN	NaN	NaN	NaN	NaN	NaN	NaN	NaN	NaN	NaN	NaN	NaN	NaN	NaN	NaN	NaN	NaN	NaN	NaN	NaN	NaN	NaN	NaN	NaN	NaN	NaN	NaN
131	1.3	654.10303	1645.19604	-1041.65259	633.67719	1628.40125	-912.52808	521.68829	1595.40698	-1065.78296	502.73776	1583.70325	-938.30444	509.38486	1433.88098	-1016.61584	470.617	1105.25403	-1016.98834	619.00378	1353.9635	-1003.96143	656.45313	1178.71106	-1016.17407	425.51349	1261.00598	-956.08417	581.86151	1392.41846	-1169.90515	612.53003	1194.74976	-1245.71802	636.10797	1085.48596	-1261.57898	746.63635	987.60107	-1279.10767	868.75031	957.70074	-1232.91394	833.08746	905.90784	-1265.2002	920.66956	887.57959	-1267.97046	552.30432	1378.99292	-848.30261	475.40186	1185.45117	-777.67651	464.17169	1064.19397	-767.25525	444.83517	945.7088	-748.27686	464.84445	792.16577	-768.44861	408.96307	812.41833	-737.58087	419.15536	728.67676	-729.61835	648.31299	940.70544	-1123.05835	656.42828	959.05194	-902.04132	490.00912	968.12042	-1091.22021	501.46692	976.92554	-922.90851	549.95355	624.93433	-1171.37476	527.31342	461.56549	-1150.92114	345.02689	277.3035	-1146.28943	235.56183	142.78468	-1108.51306	194.13445	155.94986	-1064.62354	330.67078	33.91942	-1096.75183	679.81885	635.47552	-845.76996	721.34229	519.55743	-879.14508	726.23254	251.25009	-879.17029	734.40308	67.23822	-927.65704	696.08185	43.90098	-972.65076	887.27112	36.3972	-928.02838	547.14429	1684.23755	-996.98688	NaN	NaN	NaN	NaN	NaN	NaN	NaN	NaN	NaN	NaN	NaN	NaN	NaN	NaN	NaN	NaN	NaN	NaN	NaN	NaN	NaN	NaN	NaN	NaN	NaN	NaN	NaN	NaN	NaN	NaN
132	1.31	665.11493	1647.35938	-1040.21545	644.60193	1630.36389	-911.13867	532.78448	1597.45581	-1064.43555	513.81482	1585.599	-936.9704	520.71472	1435.94617	-1015.34155	481.59933	1107.68677	-1015.74536	630.44904	1356.03235	-1002.78265	667.77344	1180.80066	-1015.07422	437.11304	1263.3136	-955.02484	593.10144	1394.77905	-1168.29883	623.38867	1197.30237	-1243.79626	644.78711	1087.50818	-1258.67236	753.33575	987.23865	-1276.29102	874.9541	954.82867	-1230.5	838.04639	903.65106	-1262.57007	925.02026	883.28436	-1265.40833	563.89209	1381.41797	-847.18958	488.63455	1187.21155	-776.3988	478.17365	1066.12402	-766.20776	459.36722	947.64331	-747.09381	480.20566	794.09668	-767.43524	424.16254	814.026	-736.461	434.58734	730.21625	-728.63068	659.55896	943.13043	-1121.23608	667.11853	961.7074	-900.4884	501.16122	970.21985	-1089.52393	512.83875	979.07819	-921.45538	565.83734	625.69067	-1170.47461	546.55701	462.00613	-1150.77954	360.86456	282.96719	-1145.65588	247.39211	151.74612	-1108.15906	207.54851	166.76608	-1063.50061	333.51889	34.85569	-1095.98572	687.81396	635.2915	-844.64355	728.72742	519.33234	-878.52014	729.64716	251.21519	-879.77399	734.69684	67.39753	-928.13873	696.11108	43.99628	-972.92126	887.64563	36.01095	-928.56305	558.10364	1686.2345	-995.51831	NaN	NaN	NaN	NaN	NaN	NaN	NaN	NaN	NaN	NaN	NaN	NaN	NaN	NaN	NaN	NaN	NaN	NaN	NaN	NaN	NaN	NaN	NaN	NaN	NaN	NaN	NaN	NaN	NaN	NaN
133	1.32	676.13525	1649.56079	-1038.81921	655.58643	1632.26733	-909.79529	543.78851	1599.68042	-1063.13879	524.76678	1587.53687	-935.76123	531.84351	1437.91809	-1014.07416	492.6105	1110.02356	-1014.29004	641.71045	1358.18201	-1001.68188	679.05603	1183.00317	-1014.0069	448.63394	1265.76038	-953.71057	604.05029	1397.1062	-1166.76086	633.8775	1199.65466	-1241.47729	653.11664	1089.39832	-1256.04187	759.70367	986.65845	-1274.02112	880.62964	951.49432	-1228.23328	842.44592	901.15698	-1260.15454	929.04346	878.62799	-1262.95886	575.46552	1383.91211	-846.10193	501.74826	1189.10669	-775.09717	492.03079	1068.04883	-765.2428	474.12811	949.42004	-746.28076	496.97787	796.35809	-765.78729	440.10114	815.71619	-735.45135	450.81955	731.87164	-727.63971	670.16321	945.58984	-1119.3302	677.77856	963.63	-899.04187	511.88708	972.39966	-1087.59106	524.11517	981.16962	-919.69696	581.53497	626.78406	-1169.73499	565.74701	462.68274	-1150.66858	377.33511	288.30942	-1144.76953	260.59048	160.22336	-1108.36853	222.43283	177.14832	-1062.82861	337.82272	36.83828	-1095.50037	695.29956	635.05292	-843.65643	735.28247	519.02637	-877.84167	731.29803	251.16304	-880.04199	734.9928	67.54459	-928.48883	696.12189	44.07644	-973.23444	887.86682	35.65371	-928.83466	569.0965	1688.28125	-994.07819	NaN	NaN	NaN	NaN	NaN	NaN	NaN	NaN	NaN	NaN	NaN	NaN	NaN	NaN	NaN	NaN	NaN	NaN	NaN	NaN	NaN	NaN	NaN	NaN	NaN	NaN	NaN	NaN	NaN	NaN
134	1.33	687.15265	1651.63489	-1037.47791	666.4823	1634.11023	-908.48792	554.77704	1601.90833	-1061.97144	535.69653	1589.45459	-934.69135	542.91852	1439.89722	-1012.78839	503.54269	1112.18799	-1012.73633	652.88177	1360.2804	-1000.6803	690.19293	1185.13574	-1012.89203	460.09766	1268.04541	-952.1496	614.71063	1399.29626	-1165.35986	644.09247	1201.91724	-1239.55957	661.04102	1091.03357	-1253.53552	765.58386	985.78986	-1271.61926	885.96338	947.84943	-1226.14771	846.42731	898.41132	-1258.04407	932.35516	873.3678	-1260.47485	586.95386	1386.41064	-845.03247	514.9505	1191.05139	-773.94806	505.8049	1069.97534	-764.12122	488.97919	951.1712	-745.2738	511.78812	797.85889	-765.3374	456.26227	817.24512	-734.56854	467.74689	733.48376	-726.51672	680.69324	947.93427	-1117.85767	688.59009	964.95081	-897.76294	522.46259	974.43091	-1085.74524	535.34741	983.19562	-917.96075	596.60138	627.73993	-1168.93994	584.75153	463.53012	-1150.47778	394.68265	293.40826	-1144.05164	274.90875	168.18181	-1108.66675	237.8486	187.17809	-1062.94092	344.35934	40.34632	-1094.9552	702.55707	635.22107	-842.85419	741.06421	518.8725	-876.90039	732.00128	251.18066	-879.93433	735.01166	67.64829	-928.66559	696.12415	44.14603	-973.39886	887.95612	35.39798	-928.59363	580.09369	1690.32813	-992.68188	NaN	NaN	NaN	NaN	NaN	NaN	NaN	NaN	NaN	NaN	NaN	NaN	NaN	NaN	NaN	NaN	NaN	NaN	NaN	NaN	NaN	NaN	NaN	NaN	NaN	NaN	NaN	NaN	NaN	NaN
135	1.34	698.10443	1653.68604	-1036.21338	677.32526	1635.89587	-907.29083	565.67682	1604.05176	-1060.91333	546.49371	1591.40881	-933.66376	553.95148	1441.76733	-1011.5705	514.40436	1114.27734	-1011.10754	663.8584	1362.31616	-999.61993	701.14545	1187.11157	-1011.75488	471.39816	1270.23267	-950.28943	625.12488	1401.27795	-1164.15845	653.72443	1203.71887	-1237.7677	668.80548	1092.32849	-1251.1958	771.05255	984.56317	-1269.52295	890.87219	943.80804	-1224.24292	849.93756	895.47009	-1256.2218	935.27124	867.76184	-1258.13708	598.49487	1388.79236	-843.97125	527.74591	1193.03381	-772.52234	519.4201	1071.83142	-762.95746	503.71707	952.91119	-744.05176	529.49103	799.92432	-763.98859	472.5975	818.4715	-733.8418	485.48026	735.02222	-725.42432	690.94067	950.06647	-1116.94495	699.38733	965.90228	-896.59344	532.81757	976.31403	-1083.99255	546.38153	985.08215	-916.28448	611.3335	628.91302	-1168.20972	603.5733	464.54602	-1150.2915	412.22763	298.20486	-1144.1886	289.94217	175.82568	-1108.79053	253.79097	196.40698	-1063.16455	354.09256	45.03768	-1095.19238	709.43579	635.77594	-842.05505	746.24811	518.70428	-875.80994	732.57568	251.21764	-879.44574	734.85999	67.74037	-928.68628	696.04181	44.13067	-973.49841	887.97028	35.14727	-928.28845	591.01971	1692.30176	-991.39197	NaN	NaN	NaN	NaN	NaN	NaN	NaN	NaN	NaN	NaN	NaN	NaN	NaN	NaN	NaN	NaN	NaN	NaN	NaN	NaN	NaN	NaN	NaN	NaN	NaN	NaN	NaN	NaN	NaN	NaN
136	1.35	708.95081	1655.63452	-1035.0321	688.0152	1637.6759	-906.11438	576.56775	1606.03699	-1059.91077	557.3028	1593.28088	-932.69708	564.85681	1443.56714	-1010.35699	525.07111	1116.16003	-1009.45642	674.76355	1364.26099	-998.71191	711.97382	1188.96411	-1010.65039	482.52408	1272.26355	-948.29614	635.19189	1402.93958	-1163.10229	662.82782	1205.33179	-1236.33167	676.27979	1093.34497	-1249.17688	776.05383	983.08075	-1267.21436	895.4386	939.4129	-1222.50708	853.19714	892.27948	-1254.66064	937.74042	861.74646	-1255.8645	609.95288	1391.03503	-842.86615	540.2738	1194.93652	-770.90417	533.09283	1073.51599	-761.69141	519.02692	954.3374	-743.13171	546.93835	801.84375	-762.79419	489.50266	819.47443	-733.04608	503.57578	736.36414	-724.25446	701.0307	952.02979	-1116.01501	710.13568	966.72034	-895.46234	542.91693	978.04065	-1082.40942	557.0564	986.8999	-914.75519	625.73889	630.13641	-1167.48145	622.35999	465.7933	-1150.03333	430.61835	301.91235	-1143.71631	305.66266	182.79616	-1108.52625	269.82364	203.60161	-1062.79797	367.81918	50.50495	-1096.27185	715.91919	636.48859	-841.1474	751.16785	518.7915	-874.17572	733.39191	251.30826	-878.771	734.73718	67.76083	-928.61249	695.8927	44.1485	-973.44098	887.95789	34.99438	-928.06842	601.81891	1694.20044	-990.23053	NaN	NaN	NaN	NaN	NaN	NaN	NaN	NaN	NaN	NaN	NaN	NaN	NaN	NaN	NaN	NaN	NaN	NaN	NaN	NaN	NaN	NaN	NaN	NaN	NaN	NaN	NaN	NaN	NaN	NaN
